#!OML:ASF F:\VICON\USERDATA\INSTALL\rory3\rory3.ASF
:FULLY-SPECIFIED
:DEGREES
28
root -0.5948961161550409 17.574385215495692 4.551777357974757 5.842468941913393 0.5856842604898533 0.5552846142658168
lfemur 7.11187556904626 -1.6887820842726247 -26.937510529862713
ltibia 34.81848408857137
lfoot -2.5673119770458563 -5.679310087997433
ltoes -25.221076178226262
rfemur -48.43219367944215 -2.7029095813350326 23.283799784554105
rtibia 93.51374376120025
rfoot 5.174314857075536 -1.9777005781384336
rtoes 5.978114111316559
lowerback 15.81377909016129 -1.0655860287016787 -3.9072149848589177
upperback -0.8958930669120879 -1.8522177879943276 1.128794062039163
thorax -9.722281248818337 -0.6864932231826751 4.008123721670296
lowerneck -21.44801749183268 -2.509617324098678 -1.7481325624738528
upperneck 14.923171783113528 -3.371158616851286 3.057734405879993
head 8.177566479245836 -1.3446831537193682 0.8972848928363726
lclavicle -1.7288340370362997e-15 1.783627732006026e-15
lhumerus -32.12546241442498 -18.539443469075543 94.7637473947701
lradius 121.28735626079617
lwrist 36.034929795757236
lhand -26.031587567539727 2.6355411614081223
lfingers 7.12502
lthumb 0.3228266246427829 32.55891147137265
rclavicle -1.7288340367611393e-15 1.7836277322062848e-15
rhumerus -59.502895908930455 6.742537682360437 -100.62799770701939
rradius 105.21658262246513
rwrist -12.694592950279363
rhand -15.817218644532824 39.46658237030501
rfingers 7.12502
rthumb 9.766859681878456 9.79688547694547
29
root -0.5323108421424606 17.816567528816613 5.585507015933002 5.928070648563632 -0.5554862140404687 0.538050373919897
lfemur 10.918080570843403 -1.6266834204424134 -26.963172839403512
ltibia 31.67044983578935
lfoot 5.6004116325598625 -8.959375022157348
ltoes -25.735550901024403
rfemur -48.898973603875575 -1.3778535090871324 23.820895219410886
rtibia 84.75134622968773
rfoot 4.115299501970403 -2.622003036588666
rtoes 2.915199135657403
lowerback 15.317655129341631 -1.2138677814001624 -3.9064256978398006
upperback -1.1711786585576667 -1.9748793509208307 1.5535043602478047
thorax -9.556166714595868 -0.7369075606054715 4.345066860687079
lowerneck -21.04512560769863 -2.3130018720741816 -1.8766998926425393
upperneck 15.680739702468907 -3.0400148989799636 2.8034441664897463
head 8.299194776923178 -1.2108663649079574 0.8507883466629105
lclavicle -1.7288340370408421e-15 1.7836277320030505e-15
lhumerus -32.44098904944846 -18.5958880492848 94.89376783774559
lradius 122.69230262761062
lwrist 35.93741984138541
lhand -25.727814836648818 2.3783577607325226
lfingers 7.12502
lthumb 0.5712103552669102 32.224988978261855
rclavicle -1.7288340367669297e-15 1.7836277322024406e-15
rhumerus -61.02943858418932 6.5472568389109265 -99.73021456216058
rradius 105.66726760329772
rwrist -12.648006139794843
rhand -15.786279730909172 39.39348992832472
rfingers 7.12502
rthumb 9.989478121542847 9.797025885285976
30
root -0.4876157725789997 18.01483229580242 6.717562489349968 6.037375549939256 -2.0161094639215187 0.6529607747893187
lfemur 14.157656225016149 -1.8246891295314933 -27.255829064779068
ltibia 28.912498568457938
lfoot 12.50701907631932 -10.868878056604487
ltoes -24.930525876900205
rfemur -48.51849890687605 -0.412755260376088 24.26691758486885
rtibia 75.84471874347838
rfoot 3.3062982350108734 -2.799924643891934
rtoes 0.12562871308741386
lowerback 14.665296705491501 -1.2594220556623341 -4.05798475677336
upperback -1.4869872534166926 -2.041259248729991 1.922089415178328
thorax -9.570620440376853 -0.7719510862839373 4.705656220938469
lowerneck -20.620111639435063 -2.1486748594660807 -1.9889267603071281
upperneck 16.255525903792226 -2.7249280169237298 2.593385531487838
head 8.408892736504704 -1.0817656429550124 0.8115306361272014
lclavicle -1.7288340370352623e-15 1.7836277320078736e-15
lhumerus -32.86709879136835 -18.974620209031958 95.20183622217921
lradius 123.36740212207116
lwrist 35.52061739379483
lhand -25.584421684126355 2.384074580976272
lfingers 7.12502
lthumb 0.6641601779436022 32.25295981435308
rclavicle -1.7288340367831485e-15 1.783627732191426e-15
rhumerus -62.56011133938536 6.139081538548978 -98.62168897522487
rradius 105.99582105458626
rwrist -12.508856100951544
rhand -15.54690661859102 39.509540178634644
rfingers 7.12502
rthumb 10.339522154567378 9.985904986655159
31
root -0.4280309316383563 18.22020719798067 8.343100248676352 6.392614556421686 -2.8215209119618336 0.493543317750214
lfemur 16.27421358927787 -2.390579969270712 -27.189468674213906
ltibia 27.306665175079544
lfoot 16.484926035503783 -11.758453186519166
ltoes -22.618478962441408
rfemur -47.30802773182912 0.1077011688575863 24.802426875392385
rtibia 66.44791714068309
rfoot 2.5642715802264586 -2.367927007369877
rtoes -3.287353841448675
lowerback 14.100537795314834 -1.3881719629539955 -3.8431178397959975
upperback -1.890274013064198 -2.1950550816319905 2.1666578702357127
thorax -9.58364854901236 -0.833672179469151 4.946550813152886
lowerneck -20.25973232710124 -2.038081582113962 -2.074608659327314
upperneck 16.686829442594213 -2.534424433485331 2.371101400493012
head 8.478234898942796 -1.0249926486720193 0.7333962318365337
lclavicle -1.7288340370340362e-15 1.783627732009485e-15
lhumerus -33.35634871890386 -19.60829757547145 95.60641311455655
lradius 123.55021426371742
lwrist 35.12727975406341
lhand -25.3302430865734 2.599053474423376
lfingers 7.12502
lthumb 0.847172897169614 32.4245093633837
rclavicle -1.7288340367824945e-15 1.783627732192636e-15
rhumerus -63.70108059195759 5.692539424255486 -97.50936546760035
rradius 106.34014849213254
rwrist -12.257484318233235
rhand -15.594321521284968 39.25551066070665
rfingers 7.12502
rthumb 10.552152993251255 9.823889206542573
32
root -0.36352857366423075 18.403499994611682 9.670434673059827 6.7122441882069355 -3.07090539068772 0.5936648065081331
lfemur 17.837492483805306 -3.3003379587270123 -27.488501264648853
ltibia 27.332628338541383
lfoot 17.957629836535162 -12.114751729941723
ltoes -19.510387442495077
rfemur -45.250149337229786 0.40000987927108167 25.145324441531
rtibia 57.5312035954016
rfoot 1.8614595539195604 -1.6635727784441396
rtoes -6.573943872355883
lowerback 13.719696324225955 -1.5891052148441114 -3.745313748898586
upperback -2.1367708188579377 -2.4298145971680105 2.323053396492581
thorax -9.535251063587275 -0.9341767629703109 5.207104342874363
lowerneck -20.28652808343834 -2.0201626676009377 -2.1095809350008055
upperneck 17.030588618044824 -2.48209567643409 2.172344196605494
head 8.61489799020789 -1.0166431710951032 0.6501876400330203
lclavicle -1.7288340370529787e-15 1.783627731996561e-15
lhumerus -33.77144769490425 -20.544711897517466 96.09475450932686
lradius 123.42014646560433
lwrist 34.7226278217932
lhand -25.24892225831999 2.1754457978656485
lfingers 7.12502
lthumb 0.9117988769359524 32.02216579397115
rclavicle -1.7288340367851382e-15 1.7836277321915374e-15
rhumerus -64.40823995081006 5.0922780654551545 -96.42196867092689
rradius 106.70388768206163
rwrist -11.81001952108462
rhand -15.198611563138552 39.41004119408582
rfingers 7.12502
rthumb 10.827915347850318 9.765353921231444
33
root -0.3155259909309266 18.52439827454765 10.525029037626801 6.811766110300484 -3.190120289405854 1.089230946882835
lfemur 18.210802652869845 -4.167340926948985 -28.033532935368697
ltibia 29.52567385849764
lfoot 17.96570211711571 -12.172415123587893
ltoes -17.058378197693234
rfemur -43.222235364279335 0.1604087091339702 25.060424626425252
rtibia 49.2081189852919
rfoot 1.1496241932774733 -1.4586863654100286
rtoes -10.304437887693268
lowerback 13.498173631146784 -1.7890629063548968 -3.9369388903300795
upperback -2.2100815187486242 -2.7345118331279643 2.206689736041693
thorax -9.46007661090425 -1.0666211946190187 5.364340199984449
lowerneck -20.344790034593768 -2.0302489514967723 -2.149600602400857
upperneck 16.943256543594355 -2.4467112865265124 2.0691139151892823
head 8.60322813280058 -1.0193453220914257 0.6113405307924981
lclavicle -1.7288340370779464e-15 1.783627731979413e-15
lhumerus -33.89488683790371 -21.567897980680673 96.52308437114003
lradius 122.83925723163411
lwrist 34.266475039105565
lhand -25.291693567952212 1.4708043517786336
lfingers 7.12502
lthumb 0.9216014042540376 31.378170025360316
rclavicle -1.7288340367773208e-15 1.7836277321982092e-15
rhumerus -64.82588882599879 4.245108408565331 -95.42376595232679
rradius 106.96365968996592
rwrist -11.194956738810212
rhand -15.406952488596762 39.17370518454297
rfingers 7.12502
rthumb 10.717740600497896 9.460927448905071
34
root -0.26724686717074214 18.59052609925945 11.624169037743425 6.681902589418087 -2.9019926324179828 1.8086558423914005
lfemur 18.33466493583422 -4.94536917578018 -28.61203963539473
ltibia 33.04618828090903
lfoot 17.55729780985644 -12.06529192010036
ltoes -14.722780659948562
rfemur -41.26211027680975 -0.3524321909383299 24.852287969931545
rtibia 42.05973962043126
rfoot 0.7906377542004321 -2.177270959392298
rtoes -12.738209330488129
lowerback 13.434835796154251 -1.992689537979175 -4.170760596093973
upperback -2.103417545237163 -3.04467219358909 2.0283007283992625
thorax -9.321888515675594 -1.2011260933132952 5.4395026739200585
lowerneck -20.48834894019828 -2.1298154336219333 -2.229306201205436
upperneck 16.640812535954765 -2.5653815491760947 2.056706123049292
head 8.532906485945324 -1.0918088049599004 0.6016309603151079
lclavicle -1.7288340370724605e-15 1.7836277319841443e-15
lhumerus -34.01609197570622 -22.551585902778505 96.9657974921486
lradius 121.8640539015372
lwrist 33.93570882963697
lhand -25.530325522749518 1.3990113560002118
lfingers 7.12502
lthumb 0.6721437113007135 31.277485051948574
rclavicle -1.728834036785222e-15 1.7836277321933376e-15
rhumerus -65.05038888173922 3.1961505098115985 -94.47754134750278
rradius 107.05698373399301
rwrist -10.234874361187423
rhand -15.176735575167573 39.39977836765971
rfingers 7.12502
rthumb 10.919711660645465 9.686470592769776
